<?xml version="1.0" encoding="UTF-8" standalone="no"?>
<!-- Created with Inkscape (http://www.inkscape.org/) -->

<svg
   version="1.1"
   id="svg2"
   width="1492.0227"
   height="416.11392"
   viewBox="0 0 1492.0227 416.11392"
   sodipodi:docname="logo.svg"
   inkscape:version="1.2.1 (9c6d41e410, 2022-07-14, custom)"
   xmlns:inkscape="http://www.inkscape.org/namespaces/inkscape"
   xmlns:sodipodi="http://sodipodi.sourceforge.net/DTD/sodipodi-0.dtd"
   xmlns="http://www.w3.org/2000/svg"
   xmlns:svg="http://www.w3.org/2000/svg">
  <defs
     id="defs6">
    <clipPath
       clipPathUnits="userSpaceOnUse"
       id="clipPath48">
      <path
         d="m 5162.31,9514.9 c -32.17,9 -65.87,13.6 -101.04,13.6 H 4915 v -298.6 h 158.35 c 37.17,0 70.86,5.2 101.03,15.8 30.15,10.5 54.29,27.2 72.38,49.8 18.1,22.6 27.14,51 27.14,85.2 0,38.2 -10.56,67.8 -31.67,88.9 -21.1,21.2 -47.75,36.2 -79.92,45.3 z"
         id="path46" />
    </clipPath>
    <linearGradient
       x1="0"
       y1="0"
       x2="1"
       y2="0"
       gradientUnits="userSpaceOnUse"
       gradientTransform="matrix(0,1472.42,1472.42,0,5094.44,8680)"
       spreadMethod="pad"
       id="linearGradient54">
      <stop
         style="stop-opacity:1;stop-color:#ffffff"
         offset="0"
         id="stop50" />
      <stop
         style="stop-opacity:1;stop-color:#72d1e8"
         offset="1"
         id="stop52" />
    </linearGradient>
    <clipPath
       clipPathUnits="userSpaceOnUse"
       id="clipPath64">
      <path
         d="m 6523.06,8775.5 h -99.8 v -99.2 h -99.82 v 99.2 h 2.75 97.05 v 4.9 90.1 h 99.82 z m -243.89,315.6 c -34.18,-11 -69.37,-19.8 -105.56,-26.4 -36.19,-6.5 -70.37,-9.8 -102.55,-9.8 -88.47,0 -168.14,13.6 -239,40.8 -70.89,27.1 -131.45,64.5 -181.73,112.3 -50.27,47.7 -88.96,104.3 -116.11,169.7 -27.16,65.3 -40.73,136.2 -40.73,212.6 0,95.5 15.08,179.7 45.26,252.6 30.14,72.9 71.35,134.2 123.65,184 52.26,49.7 112.34,87.2 180.21,112.3 67.85,25.1 139.49,37.7 214.89,37.7 66.35,0 127.93,-7.5 184.74,-22.6 56.78,-15.1 105.3,-34.2 145.51,-57.3 l -57.3,-162.9 c -19.1,11.1 -43.74,21.9 -73.9,32.4 -30.15,10.6 -60.83,18.9 -91.97,24.9 -31.18,6.1 -59.34,9.1 -84.46,9.1 -63.34,0 -119.9,-8.8 -169.66,-26.4 -49.75,-17.6 -92.25,-43.5 -127.41,-77.7 -35.21,-34.2 -62.11,-75.6 -80.7,-124.4 -18.6,-48.8 -27.9,-104.3 -27.9,-166.6 0,-56.3 9.81,-107.6 29.42,-153.9 19.59,-46.2 46.98,-85.9 82.19,-119.1 35.17,-33.2 77.4,-58.6 126.67,-76.2 49.25,-17.5 103.53,-26.3 162.86,-26.3 34.17,0 67.34,3 99.54,9 32.15,6.1 59.8,15.6 82.94,28.7 V 9450 h -206.6 v 168.9 h 383.04 V 9168 c -14.09,-14 -34.94,-27.6 -62.59,-40.7 -27.67,-13.1 -58.59,-25.1 -92.75,-36.2 z m 44.24,-315.6 h -99.79 v -99.2 h -99.83 v 99.2 h 2.75 97.05 v 4.9 90.1 h 99.82 z m -199.65,0 h -99.79 v -99.2 h -97.08 v 93.7 0.6 h -99.82 v 99.9 h 99.82 v -95 h 97.05 v 95 h 99.82 z m -396.51,-4.9 h -99.83 v 99.9 h 99.83 z m -199.66,0 h -99.82 v 99.9 h 99.82 z m -105.14,466.1 c -20.62,-39.8 -48.52,-72.2 -83.7,-97.3 -35.2,-25.2 -74.92,-43.5 -119.14,-55 -44.25,-11.6 -90.48,-17.4 -138.74,-17.4 h -342.31 v 1097.8 h 300.09 c 111.59,0 199.83,-22.6 264.67,-67.8 64.83,-45.3 97.27,-114.6 97.27,-208.1 0,-62.4 -14.59,-115.4 -43.73,-159.1 -24.7,-37 -57.6,-66.4 -97.75,-89 58.16,-24.3 104.64,-57.4 139.22,-99.5 36.67,-44.8 55.03,-97.8 55.03,-159.1 0,-57.3 -10.32,-105.8 -30.91,-145.5 z m 975.03,1124.6 H 4755.25 c -124.5,0 -225.43,-100.9 -225.43,-225.4 V 9096 8870.5 8770.6 h 97.75 v 99.9 h 100.56 v -99.9 h 2.8 97.75 v 4.9 95 h 100.56 v -99.9 h 2.8 97.75 v 4.9 95 h 100.56 v -99.9 h 100.55 v 4.9 95 h 97.04 v -99.9 h -97.04 v -99.1 h 97.04 v 98.5 h 99.83 v -98.5 h 2.79 97.03 v 98.5 h 99.83 v -98.5 h 2.79 97.04 v 98.5 h 99.82 v -98.5 h 99.79 v -38.1 -0.3 -55.9 h 97.11 v 55.9 0.3 42.3 h 99.82 v -42.3 -0.3 -55.9 h 99.83 v 55.9 0.3 42.3 h 99.82 v -42.3 -0.3 -55.9 h 99.82 v 55.9 0.3 42.3 h 99.83 v -42.3 -0.3 -55.9 h 99.82 v 55.9 0.3 42.9 h -99.82 v 99.2 h 99.8 v 4.9 90.1 h 0.02 v 225.5 1039.9 c 0,124.5 -100.93,225.4 -225.43,225.4 z"
         id="path62" />
    </clipPath>
    <linearGradient
       x1="0"
       y1="0"
       x2="1"
       y2="0"
       gradientUnits="userSpaceOnUse"
       gradientTransform="matrix(0,1472.42,1472.42,0,5576.37,8680)"
       spreadMethod="pad"
       id="linearGradient70">
      <stop
         style="stop-opacity:1;stop-color:#ffffff"
         offset="0"
         id="stop66" />
      <stop
         style="stop-color:#0d6efd;stop-opacity:1;"
         offset="1"
         id="stop68" />
    </linearGradient>
    <clipPath
       clipPathUnits="userSpaceOnUse"
       id="clipPath80">
      <path
         d="m 5182.67,9743.4 c 24.63,30.6 36.94,66.5 36.94,107.8 0,50.2 -15.6,86.9 -46.74,110.1 -31.18,23.1 -73.39,34.7 -126.68,34.7 H 4915 v -298.6 h 150.81 c 53.26,0 92.2,15.3 116.86,46 z"
         id="path78" />
    </clipPath>
    <linearGradient
       x1="0"
       y1="0"
       x2="1"
       y2="0"
       gradientUnits="userSpaceOnUse"
       gradientTransform="matrix(0,1472.42,1472.42,0,5067.3,8680)"
       spreadMethod="pad"
       id="linearGradient86">
      <stop
         style="stop-opacity:1;stop-color:#ffffff"
         offset="0"
         id="stop82" />
      <stop
         style="stop-opacity:1;stop-color:#72d1e8"
         offset="1"
         id="stop84" />
    </linearGradient>
    <clipPath
       clipPathUnits="userSpaceOnUse"
       id="clipPath96">
      <path
         d="m 5029.79,8670.8 h -100.55 v 99.8 h -100.56 v -99.8 h -97.75 -2.8 v 99.8 h -100.56 v -99.8 h -97.75 v -99.9 h 97.75 v 99.2 h 100.56 v -99.2 h 2.8 97.75 v 99.2 h 100.56 v -99.2 h 2.8 97.75 v 99.2 h 100.56 v -99.2 h 100.55 v 99.2 0.7 h -100.55 v 99.8 h -100.56 z"
         id="path94" />
    </clipPath>
    <linearGradient
       x1="0"
       y1="0"
       x2="1"
       y2="0"
       gradientUnits="userSpaceOnUse"
       gradientTransform="matrix(0,1472.42,1472.42,0,4880.36,8680)"
       spreadMethod="pad"
       id="linearGradient102">
      <stop
         style="stop-opacity:1;stop-color:#ffffff"
         offset="0"
         id="stop98" />
      <stop
         style="stop-opacity:1;stop-color:#72d1e8"
         offset="1"
         id="stop100" />
    </linearGradient>
    <clipPath
       clipPathUnits="userSpaceOnUse"
       id="clipPath112">
      <path
         d="m 5327.92,8572.3 h 99.82 v 99.1 h -99.82 z"
         id="path110" />
    </clipPath>
    <linearGradient
       x1="0"
       y1="0"
       x2="1"
       y2="0"
       gradientUnits="userSpaceOnUse"
       gradientTransform="matrix(0,1472.42,1472.42,0,5377.83,8680)"
       spreadMethod="pad"
       id="linearGradient118">
      <stop
         style="stop-opacity:1;stop-color:#ffffff"
         offset="0"
         id="stop114" />
      <stop
         style="stop-opacity:1;stop-color:#72d1e8"
         offset="1"
         id="stop116" />
    </linearGradient>
    <clipPath
       clipPathUnits="userSpaceOnUse"
       id="clipPath128">
      <path
         d="m 5527.57,8572.3 h 99.82 v 99.1 h -99.82 z"
         id="path126" />
    </clipPath>
    <linearGradient
       x1="0"
       y1="0"
       x2="1"
       y2="0"
       gradientUnits="userSpaceOnUse"
       gradientTransform="matrix(0,1472.42,1472.42,0,5577.48,8680)"
       spreadMethod="pad"
       id="linearGradient134">
      <stop
         style="stop-opacity:1;stop-color:#ffffff"
         offset="0"
         id="stop130" />
      <stop
         style="stop-opacity:1;stop-color:#72d1e8"
         offset="1"
         id="stop132" />
    </linearGradient>
    <clipPath
       clipPathUnits="userSpaceOnUse"
       id="clipPath144">
      <path
         d="m 5727.21,8572.3 h 99.83 v 99.1 h -99.83 z"
         id="path142" />
    </clipPath>
    <linearGradient
       x1="0"
       y1="0"
       x2="1"
       y2="0"
       gradientUnits="userSpaceOnUse"
       gradientTransform="matrix(0,1472.42,1472.42,0,5777.12,8680)"
       spreadMethod="pad"
       id="linearGradient150">
      <stop
         style="stop-opacity:1;stop-color:#ffffff"
         offset="0"
         id="stop146" />
      <stop
         style="stop-opacity:1;stop-color:#72d1e8"
         offset="1"
         id="stop148" />
    </linearGradient>
  </defs>
  <sodipodi:namedview
     id="namedview4"
     pagecolor="#ffffff"
     bordercolor="#000000"
     borderopacity="0.25"
     inkscape:showpageshadow="2"
     inkscape:pageopacity="0.0"
     inkscape:pagecheckerboard="0"
     inkscape:deskcolor="#d1d1d1"
     showgrid="false"
     inkscape:zoom="0.38493253"
     inkscape:cx="967.70204"
     inkscape:cy="83.131451"
     inkscape:window-width="1600"
     inkscape:window-height="831"
     inkscape:window-x="0"
     inkscape:window-y="0"
     inkscape:window-maximized="1"
     inkscape:current-layer="g12">
    <inkscape:page
       x="0"
       y="0"
       id="page8"
       width="1492.0227"
       height="416.11392"
       inkscape:export-filename="./logo-blue.png"
       inkscape:export-xdpi="96"
       inkscape:export-ydpi="96" />
  </sodipodi:namedview>
  <g
     id="g10"
     inkscape:groupmode="layer"
     inkscape:label="Page 1"
     transform="matrix(1.3333333,0,0,-1.3333333,-584.81229,1537.5868)">
    <g
       id="g12"
       transform="scale(0.1)">
      <path
         d="M 20005,5 H 5 V 20005 H 20005 V 5"
         style="fill:none;fill-opacity:1;fill-rule:nonzero;stroke:none"
         id="path14" />
      <path
         d="M 20005,5 H 5 v 20000 h 20000 z"
         style="fill:none;stroke:#73d1e8;stroke-width:10;stroke-linecap:butt;stroke-linejoin:miter;stroke-miterlimit:10;stroke-dasharray:none;stroke-opacity:1"
         id="path16" />
      <path
         d="m 6922.17,9137.9 h 221.68 c 64.32,0 124.64,10.5 180.95,31.7 56.3,21.1 105.8,51.7 148.55,92 42.71,40.1 76.15,88.7 100.29,145.5 24.12,56.7 36.19,121.4 36.19,193.7 0,61.4 -10.32,119.9 -30.91,175.7 -20.62,55.8 -51.54,105.3 -92.75,148.6 -41.23,43.2 -92,77.4 -152.31,102.5 -60.33,25.1 -130.71,37.7 -211.12,37.7 h -200.57 z m -73.9,-70.9 v 1070.7 h 263.92 c 103.53,0 191.74,-16.4 264.64,-49 72.89,-32.7 131.96,-75.7 177.19,-128.9 45.25,-53.3 78.44,-111.6 99.54,-175 21.11,-63.3 31.66,-126.1 31.66,-188.5 0,-81.4 -14.07,-154.5 -42.21,-219.4 -28.16,-64.8 -66.62,-120.4 -115.37,-166.6 -48.78,-46.3 -104.32,-81.7 -166.64,-106.4 -62.35,-24.6 -128.19,-36.9 -197.54,-36.9 h -315.19"
         style="fill:#0d6efd;fill-opacity:1;fill-rule:nonzero;stroke:none"
         id="path18" />
      <path
         d="m 7958.15,10137.7 h 660.53 v -70.9 h -586.62 v -425.2 h 527.81 v -70.9 h -527.81 v -432.8 h 607.73 V 9067 h -681.64 v 1070.7"
         style="fill:#0d6efd;fill-opacity:1;fill-rule:nonzero;stroke:none"
         id="path20" />
      <path
         d="m 9457.13,10017.1 c -31.17,15.1 -69.37,29.1 -114.6,42.2 -45.24,13 -90.49,19.6 -135.72,19.6 -70.4,0 -126.67,-17.6 -168.91,-52.8 -42.22,-35.2 -63.32,-79.4 -63.32,-132.7 0,-40.2 12.04,-73.7 36.19,-100.3 24.11,-26.6 55.78,-49.2 95,-67.8 39.21,-18.7 80.91,-36.5 125.16,-53.6 35.18,-13 70.11,-27.6 104.81,-43.7 34.68,-16.1 66.1,-35.7 94.24,-58.8 28.14,-23.2 50.53,-51.8 67.12,-86 16.59,-34.2 24.87,-76.4 24.87,-126.7 0,-59.3 -14.07,-111.8 -42.21,-157.5 -28.16,-45.8 -67.36,-81.2 -117.64,-106.4 -50.26,-25.1 -108.57,-37.7 -174.93,-37.7 -53.3,0 -101.78,6.6 -145.51,19.7 -43.74,13 -81.95,28.3 -114.62,45.9 -32.69,17.6 -58.58,32.5 -77.66,44.5 l 34.7,60.3 c 22.09,-16.1 49.01,-32.1 80.67,-48.2 31.66,-16.1 66.08,-29.7 103.3,-40.7 37.17,-11.1 74.39,-16.6 111.58,-16.6 43.22,0 85.2,8.5 125.92,25.6 40.72,17.1 74.4,43 101.04,77.7 26.64,34.7 39.97,78.6 39.97,131.9 0,51.3 -12.59,92.8 -37.71,124.4 -25.12,31.7 -57.3,57.6 -96.5,77.7 -39.21,20.1 -80.95,38.2 -125.18,54.3 -34.18,13.1 -68.36,26.9 -102.55,41.5 -34.18,14.5 -65.35,32.1 -93.49,52.8 -28.16,20.5 -50.52,45.4 -67.1,74.6 -16.58,29.1 -24.89,64.3 -24.89,105.6 0,51.2 13.05,96 39.22,134.2 26.13,38.2 61.55,68.1 106.31,89.7 44.72,21.6 95.76,32.9 153.06,33.9 50.27,0 101.29,-6.5 153.08,-19.6 51.76,-13.1 96.73,-29.6 134.95,-49.7 l -28.65,-57.3"
         style="fill:#0d6efd;fill-opacity:1;fill-rule:nonzero;stroke:none"
         id="path22" />
      <path
         d="m 9696.91,10137.7 h 701.19 v -70.9 H 10083 V 9067 h -73.9 v 999.8 h -312.19 v 70.9"
         style="fill:#0d6efd;fill-opacity:1;fill-rule:nonzero;stroke:none"
         id="path24" />
      <path
         d="m 11042,9554.1 297.1,-487.1 h -85.9 l -298.6,485.6 z m -153.8,33.2 c 53.3,0 97.5,7.5 132.7,22.6 35.2,15.1 62.8,34.7 83,58.8 20.1,24.1 34.4,50.5 43,79.2 8.5,28.6 12.8,56.5 12.8,83.7 0,32.1 -5.8,62.3 -17.4,90.5 -11.5,28.1 -28.4,53 -50.5,74.6 -22.1,21.6 -48.8,38.7 -79.9,51.3 -31.2,12.5 -65.9,18.8 -104.1,18.8 h -180.9 v -479.5 z m 9.1,550.4 c 40.2,0 80.1,-5.8 119.9,-17.3 39.7,-11.6 75.9,-29.7 108.5,-54.3 32.7,-24.7 59.1,-56.1 79.2,-94.3 20.1,-38.2 30.2,-83.9 30.2,-137.2 0,-40.2 -6.1,-79.2 -18.1,-116.9 -12.1,-37.7 -31.7,-71.6 -58.8,-101.8 -27.2,-30.1 -62.4,-54.3 -105.6,-72.4 -43.2,-18.1 -96.5,-27.1 -159.9,-27.1 h -165.8 V 9067 h -73.9 v 1070.7 h 244.3"
         style="fill:#0d6efd;fill-opacity:1;fill-rule:nonzero;stroke:none"
         id="path26" />
      <path
         d="m 11604.6,9599.3 c 0,-65.3 12,-126.6 36.2,-183.9 24.1,-57.3 57.8,-107.6 101,-150.8 43.2,-43.3 93.2,-77.2 150.1,-101.8 56.7,-24.7 117.3,-37 181.7,-37 66.3,0 128.1,12.3 185.4,37 57.3,24.6 107.6,58.5 150.9,101.8 43.2,43.2 77.1,93.5 101.7,150.8 24.7,57.3 37,119.1 37,185.4 0,65.4 -12.3,126.9 -37,184.8 -24.6,57.8 -58.5,108.6 -101.7,152.3 -43.3,43.7 -93.6,78.1 -150.9,103.3 -57.3,25.1 -118.6,37.7 -183.9,37.7 -66.4,0 -128.2,-12.8 -185.5,-38.5 -57.3,-25.6 -107.3,-60.6 -150.1,-104.8 -42.7,-44.2 -75.9,-95.2 -99.5,-153 -23.6,-57.9 -35.4,-118.9 -35.4,-183.3 z m -75.4,1.5 c 0,75.5 14,146.1 42.2,211.9 28.1,65.9 67.3,124.2 117.6,174.9 50.3,50.8 108.3,90.5 174.2,119.2 65.8,28.6 136.5,43 211.9,43 75.4,0 146.3,-14.4 212.6,-43 66.4,-28.7 124.7,-68.4 174.9,-119.2 50.3,-50.7 89.8,-109 118.4,-174.9 28.7,-65.8 43,-136.4 43,-211.9 0,-75.4 -14.3,-146 -43,-211.8 -28.6,-65.9 -68.1,-123.9 -118.4,-174.2 -50.2,-50.3 -108.5,-89.5 -174.9,-117.6 -66.3,-28.2 -137.2,-42.3 -212.6,-42.3 -75.4,0 -146.1,13.6 -211.9,40.8 -65.9,27.1 -123.9,65.3 -174.2,114.6 -50.3,49.2 -89.5,107 -117.6,173.4 -28.2,66.3 -42.2,138.7 -42.2,217.1"
         style="fill:#73d1e8;fill-opacity:1;fill-rule:nonzero;stroke:none"
         id="path28" />
      <path
         d="m 13509.2,10137.7 -345.7,-605.7 -238.8,415.6 h -89.5 l 289.4,-499.1 V 9067 h 74 v 381.5 l 399.6,689.2 h -89"
         style="fill:#0d6efd;fill-opacity:1;fill-rule:nonzero;stroke:none"
         id="path30" />
      <path
         d="m 13830.4,10137.7 h 660.5 v -70.9 h -586.6 v -425.2 h 527.8 v -70.9 h -527.8 V 9137.9 H 14512 V 9067 h -681.6 v 1070.7"
         style="fill:#0d6efd;fill-opacity:1;fill-rule:nonzero;stroke:none"
         id="path32" />
      <path
         d="m 15183.1,9554.1 297.1,-487.1 h -86 l -298.6,485.6 z m -153.8,33.2 c 53.2,0 97.5,7.5 132.7,22.6 35.2,15.1 62.8,34.7 82.9,58.8 20.1,24.1 34.4,50.5 43,79.2 8.5,28.6 12.8,56.5 12.8,83.7 0,32.1 -5.8,62.3 -17.3,90.5 -11.6,28.1 -28.4,53 -50.5,74.6 -22.2,21.6 -48.8,38.7 -80,51.3 -31.2,12.5 -65.8,18.8 -104,18.8 h -181 v -479.5 z m 9,550.4 c 40.2,0 80.2,-5.8 119.9,-17.3 39.7,-11.6 75.9,-29.7 108.6,-54.3 32.6,-24.7 59,-56.1 79.1,-94.3 20.1,-38.2 30.2,-83.9 30.2,-137.2 0,-40.2 -6,-79.2 -18.1,-116.9 -12.1,-37.7 -31.7,-71.6 -58.8,-101.8 -27.1,-30.1 -62.3,-54.3 -105.6,-72.4 -43.2,-18.1 -96.5,-27.1 -159.8,-27.1 h -165.9 V 9067 h -73.9 v 1070.7 h 244.3"
         style="fill:#0d6efd;fill-opacity:1;fill-rule:nonzero;stroke:none"
         id="path34" />
      <path
         d="m 11864.1,10078.9 -661.6,1302.5 c -12.8,24.2 2.4,53.7 29.5,57.4 v 0 c 16.5,2.2 32.6,-6.1 40.2,-20.8 l 661.2,-1307.2"
         style="fill:#73d1e8;fill-opacity:1;fill-rule:nonzero;stroke:none"
         id="path36" />
      <path
         d="m 12285.2,10907.1 c -38,-49.6 -65.3,-104 -81.9,-163.2 -16.6,-59.2 -21.6,-120 -14.8,-182.5 6.8,-62.4 26.9,-122.2 60.4,-179.5 33,-56.4 74.8,-103 125.4,-139.8 50.7,-36.8 105.7,-62.8 165.3,-78.1 59.6,-15.2 120.5,-18.9 182.9,-11 62.3,8 121.7,28.4 178.1,61.4 57.3,33.4 104.4,75.3 141.5,125.5 37,50.2 63.3,104.9 78.8,163.9 15.5,59.2 19.4,119.7 11.8,181.6 -7.7,61.9 -28.2,121.5 -61.7,178.8 -32.5,55.6 -73.7,101.6 -123.6,138.2 -50,36.6 -104.5,62.7 -163.6,78.2 -59.2,15.5 -119.6,19.2 -181.2,11.1 -61.7,-8.1 -120.7,-28.6 -177.1,-61.6 -55.6,-32.4 -102.3,-73.5 -140.3,-123 z m 309.7,260.5 c 71.5,9.2 141.2,4.5 209.1,-14 67.9,-18.6 130.2,-49.4 186.8,-92.6 56.7,-43.1 104.1,-97.2 142.1,-162.3 38.1,-65.1 61.7,-133.4 70.9,-204.9 9.2,-71.5 4.7,-141.6 -13.3,-210.4 -18,-68.8 -48.2,-132.1 -90.6,-190.1 -42.4,-58 -96.1,-106 -161.2,-144 -65.1,-38.1 -133.3,-61.4 -204.7,-69.9 -71.2,-8.4 -141.5,-3.8 -210.7,14 -69.2,17.8 -132.9,48 -191.2,90.9 -58.2,42.8 -106.3,96.8 -144.3,161.8 -38.1,65.1 -61.4,133.3 -69.9,204.6 -8.5,71.4 -3.5,141.5 15,210.5 18.4,69.1 49,132.4 91.6,189.9 42.7,57.5 96.5,105.3 161.6,143.3 67.7,39.6 137.3,64 208.8,73.2"
         style="fill:#73d1e8;fill-opacity:1;fill-rule:nonzero;stroke:none"
         id="path38" />
      <path
         d="m 12142.5,10564.1 -1458.4,-86.2 c -27.3,-1.2 -45.1,-29.2 -34.6,-54.5 v 0 c 6.4,-15.3 21.7,-25 38.2,-24.2 l 1462.2,88.9"
         style="fill:#73d1e8;fill-opacity:1;fill-rule:nonzero;stroke:none"
         id="path40" />
      <g
         id="g42">
        <g
           id="g44"
           clip-path="url(#clipPath48)">
          <path
             d="m 5162.31,9514.9 c -32.17,9 -65.87,13.6 -101.04,13.6 H 4915 v -298.6 h 158.35 c 37.17,0 70.86,5.2 101.03,15.8 30.15,10.5 54.29,27.2 72.38,49.8 18.1,22.6 27.14,51 27.14,85.2 0,38.2 -10.56,67.8 -31.67,88.9 -21.1,21.2 -47.75,36.2 -79.92,45.3"
             style="fill:url(#linearGradient54);fill-opacity:1;fill-rule:nonzero;stroke:none"
             id="path56" />
        </g>
      </g>
      <g
         id="g58">
        <g
           id="g60"
           clip-path="url(#clipPath64)">
          <path
             d="m 6523.06,8775.5 h -99.8 v -99.2 h -99.82 v 99.2 h 2.75 97.05 v 4.9 90.1 h 99.82 z m -243.89,315.6 c -34.18,-11 -69.37,-19.8 -105.56,-26.4 -36.19,-6.5 -70.37,-9.8 -102.55,-9.8 -88.47,0 -168.14,13.6 -239,40.8 -70.89,27.1 -131.45,64.5 -181.73,112.3 -50.27,47.7 -88.96,104.3 -116.11,169.7 -27.16,65.3 -40.73,136.2 -40.73,212.6 0,95.5 15.08,179.7 45.26,252.6 30.14,72.9 71.35,134.2 123.65,184 52.26,49.7 112.34,87.2 180.21,112.3 67.85,25.1 139.49,37.7 214.89,37.7 66.35,0 127.93,-7.5 184.74,-22.6 56.78,-15.1 105.3,-34.2 145.51,-57.3 l -57.3,-162.9 c -19.1,11.1 -43.74,21.9 -73.9,32.4 -30.15,10.6 -60.83,18.9 -91.97,24.9 -31.18,6.1 -59.34,9.1 -84.46,9.1 -63.34,0 -119.9,-8.8 -169.66,-26.4 -49.75,-17.6 -92.25,-43.5 -127.41,-77.7 -35.21,-34.2 -62.11,-75.6 -80.7,-124.4 -18.6,-48.8 -27.9,-104.3 -27.9,-166.6 0,-56.3 9.81,-107.6 29.42,-153.9 19.59,-46.2 46.98,-85.9 82.19,-119.1 35.17,-33.2 77.4,-58.6 126.67,-76.2 49.25,-17.5 103.53,-26.3 162.86,-26.3 34.17,0 67.34,3 99.54,9 32.15,6.1 59.8,15.6 82.94,28.7 V 9450 h -206.6 v 168.9 h 383.04 V 9168 c -14.09,-14 -34.94,-27.6 -62.59,-40.7 -27.67,-13.1 -58.59,-25.1 -92.75,-36.2 z m 44.24,-315.6 h -99.79 v -99.2 h -99.83 v 99.2 h 2.75 97.05 v 4.9 90.1 h 99.82 z m -199.65,0 h -99.79 v -99.2 h -97.08 v 93.7 0.6 h -99.82 v 99.9 h 99.82 v -95 h 97.05 v 95 h 99.82 z m -396.51,-4.9 h -99.83 v 99.9 h 99.83 z m -199.66,0 h -99.82 v 99.9 h 99.82 z m -105.14,466.1 c -20.62,-39.8 -48.52,-72.2 -83.7,-97.3 -35.2,-25.2 -74.92,-43.5 -119.14,-55 -44.25,-11.6 -90.48,-17.4 -138.74,-17.4 h -342.31 v 1097.8 h 300.09 c 111.59,0 199.83,-22.6 264.67,-67.8 64.83,-45.3 97.27,-114.6 97.27,-208.1 0,-62.4 -14.59,-115.4 -43.73,-159.1 -24.7,-37 -57.6,-66.4 -97.75,-89 58.16,-24.3 104.64,-57.4 139.22,-99.5 36.67,-44.8 55.03,-97.8 55.03,-159.1 0,-57.3 -10.32,-105.8 -30.91,-145.5 z m 975.03,1124.6 H 4755.25 c -124.5,0 -225.43,-100.9 -225.43,-225.4 V 9096 8870.5 8770.6 h 97.75 v 99.9 h 100.56 v -99.9 h 2.8 97.75 v 4.9 95 h 100.56 v -99.9 h 2.8 97.75 v 4.9 95 h 100.56 v -99.9 h 100.55 v 4.9 95 h 97.04 v -99.9 h -97.04 v -99.1 h 97.04 v 98.5 h 99.83 v -98.5 h 2.79 97.03 v 98.5 h 99.83 v -98.5 h 2.79 97.04 v 98.5 h 99.82 v -98.5 h 99.79 v -38.1 -0.3 -55.9 h 97.11 v 55.9 0.3 42.3 h 99.82 v -42.3 -0.3 -55.9 h 99.83 v 55.9 0.3 42.3 h 99.82 v -42.3 -0.3 -55.9 h 99.82 v 55.9 0.3 42.3 h 99.83 v -42.3 -0.3 -55.9 h 99.82 v 55.9 0.3 42.9 h -99.82 v 99.2 h 99.8 v 4.9 90.1 h 0.02 v 225.5 1039.9 c 0,124.5 -100.93,225.4 -225.43,225.4"
             style="fill:url(#linearGradient70);fill-opacity:1;fill-rule:nonzero;stroke:none"
             id="path72" />
        </g>
      </g>
      <g
         id="g74">
        <g
           id="g76"
           clip-path="url(#clipPath80)">
          <path
             d="m 5182.67,9743.4 c 24.63,30.6 36.94,66.5 36.94,107.8 0,50.2 -15.6,86.9 -46.74,110.1 -31.18,23.1 -73.39,34.7 -126.68,34.7 H 4915 v -298.6 h 150.81 c 53.26,0 92.2,15.3 116.86,46"
             style="fill:url(#linearGradient86);fill-opacity:1;fill-rule:nonzero;stroke:none"
             id="path88" />
        </g>
      </g>
      <g
         id="g90">
        <g
           id="g92"
           clip-path="url(#clipPath96)">
          <path
             d="m 5029.79,8670.8 h -100.55 v 99.8 h -100.56 v -99.8 h -97.75 -2.8 v 99.8 h -100.56 v -99.8 h -97.75 v -99.9 h 97.75 v 99.2 h 100.56 v -99.2 h 2.8 97.75 v 99.2 h 100.56 v -99.2 h 2.8 97.75 v 99.2 h 100.56 v -99.2 h 100.55 v 99.2 0.7 h -100.55 v 99.8 h -100.56 v -99.8"
             style="fill:url(#linearGradient102);fill-opacity:1;fill-rule:nonzero;stroke:none"
             id="path104" />
        </g>
      </g>
      <g
         id="g106">
        <g
           id="g108"
           clip-path="url(#clipPath112)">
          <path
             d="m 5327.92,8572.3 h 99.82 v 99.1 h -99.82 v -99.1"
             style="fill:url(#linearGradient118);fill-opacity:1;fill-rule:nonzero;stroke:none"
             id="path120" />
        </g>
      </g>
      <g
         id="g122">
        <g
           id="g124"
           clip-path="url(#clipPath128)">
          <path
             d="m 5527.57,8572.3 h 99.82 v 99.1 h -99.82 v -99.1"
             style="fill:url(#linearGradient134);fill-opacity:1;fill-rule:nonzero;stroke:none"
             id="path136" />
        </g>
      </g>
      <g
         id="g138">
        <g
           id="g140"
           clip-path="url(#clipPath144)">
          <path
             d="m 5727.21,8572.3 h 99.83 v 99.1 h -99.83 v -99.1"
             style="fill:url(#linearGradient150);fill-opacity:1;fill-rule:nonzero;stroke:none"
             id="path152" />
        </g>
      </g>
      <rect
         style="fill:none;fill-opacity:1;stroke-width:7.5"
         id="rect1911"
         width="11513.33"
         height="3161.1919"
         x="4201.9082"
         y="-11586.319"
         transform="scale(1,-1)"
         inkscape:export-filename="logo-blue.png"
         inkscape:export-xdpi="96"
         inkscape:export-ydpi="96" />
      <rect
         style="opacity:0.85;fill:none;fill-opacity:1;stroke-width:7.5"
         id="rect2662"
         width="11076.464"
         height="2928.8318"
         x="4515.0972"
         y="-11445.441"
         transform="scale(1,-1)" />
      <rect
         style="opacity:0.85;fill:none;fill-opacity:1;stroke-width:7.5"
         id="rect2681"
         width="11190.171"
         height="3120.8545"
         x="4386.0923"
         y="-11531.901"
         transform="scale(1,-1)" />
    </g>
  </g>
</svg>
